<svg width="179" height="178" viewBox="0 0 179 178" fill="none" xmlns="http://www.w3.org/2000/svg">
<path d="M87.9393 126.061C88.5251 126.646 89.4749 126.646 90.0607 126.061L99.6066 116.515C100.192 115.929 100.192 114.979 99.6066 114.393C99.0208 113.808 98.0711 113.808 97.4853 114.393L89 122.879L80.5147 114.393C79.9289 113.808 78.9792 113.808 78.3934 114.393C77.8076 114.979 77.8076 115.929 78.3934 116.515L87.9393 126.061ZM87.5 53L87.5 125L90.5 125L90.5 53L87.5 53Z" fill="#CFEF00"/>
<path d="M76.8024 162.605C76.4448 163.917 75.8216 165.011 74.933 165.889C74.0315 166.762 72.9809 167.347 71.7811 167.641C70.5649 167.946 69.3329 167.928 68.0851 167.587C66.6572 167.198 65.4866 166.499 64.5731 165.49C63.6433 164.49 63.1029 163.279 62.9518 161.856L65.5954 162.576C65.7499 163.378 66.0885 164.037 66.6113 164.553C67.1341 165.069 67.8007 165.437 68.6111 165.658C69.4987 165.9 70.3442 165.916 71.1476 165.707C71.9509 165.497 72.6537 165.074 73.2559 164.436C73.8452 163.795 74.2748 162.98 74.5448 161.989C74.8148 160.999 74.8586 160.078 74.676 159.226C74.4806 158.372 74.0917 157.644 73.5092 157.043C72.9233 156.455 72.1865 156.04 71.2989 155.798C70.4885 155.577 69.7272 155.556 69.015 155.735C68.3029 155.914 67.6767 156.31 67.1365 156.923L64.493 156.202C65.3453 155.052 66.4258 154.283 67.7343 153.893C69.0299 153.5 70.3917 153.498 71.8196 153.887C73.0803 154.231 74.1527 154.834 75.0369 155.697C75.9176 156.573 76.5246 157.616 76.8581 158.826C77.1787 160.033 77.1601 161.293 76.8024 162.605Z" fill="#CFEF00"/>
<path d="M54.3476 146.305C55.233 146.851 55.9109 147.543 56.3812 148.38C56.8446 149.23 57.0568 150.144 57.0178 151.122C56.9719 152.111 56.6516 153.089 56.0571 154.054C55.4696 155.007 54.7385 155.723 53.8639 156.203C52.9893 156.682 52.0663 156.896 51.095 156.846C50.1237 156.795 49.1897 156.494 48.2929 155.941C47.3961 155.389 46.7069 154.69 46.2252 153.845C45.7435 153 45.5199 152.079 45.5545 151.083C45.5891 150.086 45.9002 149.111 46.4877 148.158C47.0752 147.204 47.812 146.491 48.6979 146.019C49.5839 145.547 50.5274 145.337 51.5284 145.39C52.5111 145.448 53.4508 145.753 54.3476 146.305ZM53.3089 147.991C52.8094 147.683 52.2706 147.516 51.6924 147.488C51.1028 147.454 50.5249 147.591 49.9587 147.9C49.3925 148.209 48.8996 148.704 48.4799 149.385C48.0603 150.066 47.8376 150.72 47.8119 151.346C47.7793 151.984 47.9052 152.555 48.1896 153.059C48.4741 153.563 48.8661 153.969 49.3656 154.277C49.8651 154.584 50.4039 154.752 50.9821 154.779C51.549 154.8 52.1042 154.649 52.6477 154.326C53.1842 154.014 53.6623 153.518 54.0819 152.837C54.7044 151.826 54.9316 150.886 54.7635 150.015C54.577 149.148 54.0922 148.474 53.3089 147.991Z" fill="#CFEF00"/>
<path d="M31.8182 142.428C31.2246 141.797 30.8261 141.11 30.6226 140.368C30.41 139.617 30.4288 138.858 30.6788 138.092C30.9288 137.326 31.4181 136.601 32.1467 135.916L36.8826 131.464L38.4306 133.11L33.9424 137.33C33.2235 138.006 32.8436 138.701 32.8026 139.417C32.752 140.142 33.0189 140.815 33.6033 141.437C34.1878 142.058 34.8479 142.371 35.5835 142.375C36.3003 142.378 37.0181 142.042 37.737 141.366L42.2252 137.147L43.7868 138.808L35.7577 146.356L34.196 144.695L35.114 143.832C34.528 143.87 33.9464 143.768 33.3691 143.523C32.7827 143.269 32.2657 142.904 31.8182 142.428Z" fill="#CFEF00"/>
<path d="M23.2539 127.419L28.5259 124.35C28.8831 124.142 29.0954 123.911 29.1629 123.655C29.212 123.395 29.1193 123.064 28.8845 122.66L28.1802 121.45L29.8223 120.495L30.7278 122.05C31.2443 122.937 31.4326 123.738 31.2927 124.452C31.1529 125.166 30.6163 125.795 29.6829 126.338L24.4109 129.406L25.0649 130.53L23.4574 131.466L22.8034 130.342L20.4353 131.72L19.2783 129.733L21.6464 128.354L20.2982 126.038L21.9057 125.102L23.2539 127.419Z" fill="#CFEF00"/>
<path d="M21.4651 116.119C20.4054 116.438 19.4017 116.503 18.4539 116.315C17.5023 116.114 16.6896 115.704 16.016 115.085C15.3258 114.458 14.8423 113.684 14.5656 112.765C14.3158 111.935 14.2646 111.164 14.4121 110.451C14.543 109.729 14.7953 109.11 15.169 108.594L13.6369 109.055L12.9739 106.853L23.5262 103.676L24.1892 105.879L22.6188 106.352C23.2282 106.572 23.7949 106.951 24.319 107.49C24.8431 108.028 25.2282 108.706 25.4742 109.523C25.747 110.43 25.767 111.329 25.5341 112.22C25.2885 113.116 24.818 113.912 24.1226 114.608C23.4107 115.296 22.5248 115.8 21.4651 116.119ZM18.9035 107.47C18.1757 107.689 17.5898 108.032 17.1459 108.5C16.698 108.955 16.4067 109.468 16.2718 110.037C16.137 110.607 16.1541 111.173 16.3232 111.735C16.4923 112.296 16.7904 112.778 17.2173 113.178C17.6314 113.583 18.1528 113.857 18.7812 114.002C19.3931 114.138 20.0629 114.097 20.7906 113.878C21.5184 113.659 22.1125 113.32 22.5731 112.861C23.0299 112.389 23.3321 111.867 23.4797 111.293C23.6107 110.711 23.5936 110.145 23.4283 109.596C23.2592 109.034 22.9612 108.553 22.5343 108.152C22.1073 107.752 21.5816 107.485 20.9569 107.353C20.3157 107.212 19.6312 107.251 18.9035 107.47Z" fill="#CFEF00"/>
<path d="M16.7922 96.4782C15.6593 96.5103 14.66 96.3119 13.7942 95.8829C12.9146 95.441 12.2301 94.8201 11.7406 94.0203C11.2511 93.2205 10.9914 92.2941 10.9616 91.2412C10.9238 89.9084 11.2126 88.7998 11.8278 87.9154C12.4293 87.018 13.3121 86.3994 14.4763 86.0596L14.5459 88.5187C14.0052 88.7341 13.5877 89.066 13.2936 89.5145C12.9995 89.963 12.8619 90.5205 12.8808 91.1869C12.9072 92.1198 13.2616 92.8568 13.9438 93.3977C14.6124 93.9256 15.5398 94.1728 16.726 94.1392C17.9121 94.1056 18.8307 93.8061 19.4816 93.2408C20.1322 92.6621 20.4442 91.9063 20.4178 90.9734C20.3804 89.6539 19.7759 88.7974 18.6043 88.4037L18.5347 85.9447C19.6633 86.2328 20.5732 86.8073 21.2646 87.6681C21.9425 88.5292 22.3 89.6129 22.337 90.919C22.3669 91.9719 22.16 92.9115 21.7166 93.7377C21.2598 94.5643 20.6115 95.2229 19.7718 95.7136C18.9183 96.1913 17.9251 96.4462 16.7922 96.4782Z" fill="#CFEF00"/>
<path d="M14.4034 74.4608L20.3916 75.6233C20.7973 75.7021 21.1096 75.6676 21.3284 75.5199C21.5367 75.3566 21.6853 75.0459 21.7743 74.5878L22.041 73.2135L23.9062 73.5756L23.5632 75.3426C23.3675 76.3504 22.982 77.0769 22.4067 77.5221C21.8313 77.9673 21.0135 78.087 19.9533 77.8812L13.9651 76.7187L13.7173 77.9948L11.8914 77.6404L12.1391 76.3642L9.44936 75.842L9.88767 73.5842L12.5775 74.1064L13.0882 71.4755L14.9141 71.8299L14.4034 74.4608Z" fill="#CFEF00"/>
<path d="M20.0451 46.9033L27.4178 51.8168C28.2943 52.401 29.1061 52.6135 29.853 52.4544C30.6074 52.2842 31.2582 51.7885 31.8054 50.9675C32.3599 50.1354 32.5669 49.344 32.4263 48.5933C32.293 47.8315 31.7881 47.1586 30.9116 46.5744L23.5389 41.6609L24.8034 39.7636L32.1428 44.655C33.0859 45.2835 33.7479 46.0211 34.1289 46.8679C34.51 47.7147 34.6321 48.5893 34.4954 49.4916C34.3587 50.3939 34.0131 51.2612 33.4585 52.0933C32.904 52.9254 32.2366 53.5782 31.4563 54.0517C30.6835 54.5141 29.8367 54.7268 28.9159 54.69C27.9951 54.6531 27.0632 54.3204 26.1201 53.6919L18.7807 48.8006L20.0451 46.9033Z" fill="#CFEF00"/>
<path d="M44.8179 39.0798C44.1699 39.6553 43.4849 40.0586 42.7629 40.2897C42.0419 40.5019 41.3549 40.5415 40.7016 40.4083C40.0395 40.2652 39.4772 39.9533 39.0146 39.4725L40.7791 37.9054C41.1189 38.2277 41.5446 38.3758 42.0562 38.3494C42.5689 38.3042 43.0545 38.078 43.5131 37.6707C43.9916 37.2458 44.2808 36.8284 44.3806 36.4188C44.4816 35.9903 44.4037 35.6315 44.1469 35.3424C43.8725 35.0334 43.5193 34.9369 43.0874 35.053C42.6655 35.1602 42.0558 35.4074 41.2584 35.7946C40.4898 36.174 39.8402 36.4567 39.3098 36.6424C38.7793 36.8282 38.2234 36.885 37.6422 36.8128C37.0708 36.7317 36.5461 36.422 36.068 35.8836C35.6785 35.445 35.4539 34.9311 35.3944 34.342C35.326 33.743 35.4381 33.1263 35.7307 32.4919C36.0333 31.8487 36.4986 31.2482 37.1266 30.6904C38.0638 29.8582 39.0289 29.429 40.0222 29.4029C41.0165 29.3579 41.8966 29.7264 42.6625 30.5085L40.9578 32.0225C40.6003 31.6802 40.1895 31.5189 39.7256 31.5387C39.2616 31.5584 38.8004 31.7719 38.3418 32.1792C37.8931 32.5776 37.6245 32.9678 37.5357 33.3497C37.447 33.7317 37.5265 34.0623 37.7745 34.3414C37.9692 34.5607 38.2128 34.6743 38.5051 34.6822C38.7974 34.6901 39.0981 34.6371 39.407 34.5232C39.7072 34.3993 40.1391 34.2029 40.7028 33.9341C41.4426 33.5624 42.0772 33.2931 42.6066 33.1261C43.137 32.9403 43.6835 32.883 44.246 32.9541C44.8084 33.0252 45.3293 33.3205 45.8085 33.84C46.2246 34.3086 46.4669 34.8424 46.5353 35.4415C46.6037 36.0405 46.4915 36.6572 46.199 37.2916C45.9163 37.917 45.456 38.5131 44.8179 39.0798Z" fill="#CFEF00"/>
<path d="M74.0477 19.0495C74.1294 18.5854 74.2186 18.1745 74.3152 17.8169C74.4248 17.4558 74.5418 17.1479 74.6663 16.8932L63.4105 19.9367L63.1913 19.1258L74.4471 16.0823C74.2077 15.9123 73.9497 15.6989 73.6731 15.4422C73.4094 15.182 73.1271 14.8785 72.8261 14.5317L73.5019 14.349C74.5668 15.0693 75.6042 15.5347 76.6141 15.745L76.7081 16.0925C75.9383 16.7703 75.2767 17.695 74.7234 18.8667L74.0477 19.0495Z" fill="#CFEF00"/>
<path d="M99.4803 15.3647C99.7966 14.042 100.385 12.9283 101.246 12.0237C102.119 11.1222 103.151 10.5052 104.341 10.1729C105.547 9.83063 106.779 9.80992 108.037 10.1107C109.476 10.4549 110.668 11.117 111.613 12.0969C112.574 13.067 113.152 14.2609 113.348 15.6786L110.683 15.0413C110.503 14.2444 110.144 13.5964 109.605 13.0974C109.067 12.5984 108.389 12.2513 107.572 12.0559C106.677 11.8419 105.831 11.8522 105.035 12.0867C104.239 12.3213 103.549 12.7665 102.968 13.4225C102.399 14.0816 101.995 14.9104 101.756 15.9089C101.517 16.9074 101.503 17.8293 101.712 18.6744C101.934 19.5227 102.345 20.238 102.946 20.8205C103.551 21.3899 104.3 21.7816 105.195 21.9956C106.012 22.191 106.773 22.188 107.479 21.9868C108.186 21.7855 108.799 21.3701 109.32 20.7406L111.985 21.3779C111.169 22.5537 110.113 23.3569 108.817 23.7873C107.535 24.2209 106.174 24.2655 104.734 23.9213C103.463 23.6174 102.373 23.0481 101.462 22.2134C100.554 21.3656 99.9145 20.3422 99.5432 19.1429C99.185 17.9468 99.164 16.6874 99.4803 15.3647Z" fill="#CFEF00"/>
<path d="M122.436 30.9515C121.534 30.434 120.834 29.7639 120.338 28.9411C119.848 28.1068 119.607 27.2001 119.616 26.2211C119.63 25.2305 119.92 24.2436 120.484 23.2606C121.041 22.2891 121.749 21.5502 122.608 21.0439C123.468 20.5376 124.383 20.2944 125.356 20.3142C126.328 20.334 127.271 20.606 128.185 21.1301C129.099 21.6542 129.809 22.331 130.317 23.1604C130.825 23.9898 131.078 24.9031 131.074 25.9003C131.071 26.8976 130.791 27.8819 130.233 28.8534C129.676 29.8249 128.962 30.5605 128.091 31.0602C127.221 31.5598 126.284 31.7989 125.282 31.7774C124.298 31.7509 123.349 31.4756 122.436 30.9515ZM123.421 29.234C123.93 29.5259 124.474 29.6765 125.052 29.6857C125.643 29.7016 126.216 29.5463 126.772 29.2198C127.329 28.8932 127.806 28.383 128.204 27.6891C128.602 26.9951 128.804 26.3348 128.81 25.708C128.822 25.0697 128.679 24.503 128.379 24.008C128.078 23.513 127.674 23.1196 127.165 22.8277C126.656 22.5357 126.112 22.3852 125.533 22.3759C124.966 22.3733 124.416 22.5419 123.883 22.8817C123.356 23.21 122.894 23.721 122.496 24.415C121.906 25.4443 121.708 26.3916 121.903 27.2569C122.117 28.1172 122.623 28.7762 123.421 29.234Z" fill="#CFEF00"/>
<path d="M145.075 34.119C145.689 34.7316 146.109 35.4055 146.335 36.1407C146.571 36.8854 146.576 37.6444 146.35 38.4176C146.125 39.1908 145.658 39.9312 144.952 40.6386L140.358 45.2372L138.759 43.6399L143.112 39.2819C143.81 38.5839 144.168 37.8766 144.186 37.1601C144.214 36.4341 143.926 35.7696 143.322 35.1665C142.719 34.5634 142.049 34.2714 141.314 34.2907C140.597 34.3099 139.89 34.6685 139.193 35.3666L134.839 39.7246L133.226 38.1132L141.015 30.3169L142.628 31.9283L141.737 32.8197C142.322 32.7628 142.906 32.8474 143.491 33.0733C144.085 33.3087 144.613 33.6573 145.075 34.119Z" fill="#CFEF00"/>
<path d="M154.107 48.8531L148.934 52.0857C148.583 52.3047 148.378 52.5428 148.319 52.8C148.278 53.0615 148.381 53.3901 148.628 53.7859L149.37 54.9731L147.759 55.98L146.805 54.4535C146.261 53.5828 146.048 52.7885 146.165 52.0706C146.282 51.3526 146.799 50.7075 147.715 50.1351L152.888 46.9026L152.199 45.8001L153.776 44.8145L154.465 45.9169L156.789 44.4649L158.008 46.4154L155.684 47.8674L157.104 50.1402L155.527 51.1259L154.107 48.8531Z" fill="#CFEF00"/>
<path d="M156.249 60.0912C157.298 59.7391 158.3 59.6422 159.253 59.8005C160.21 59.9714 161.035 60.3555 161.728 60.9528C162.438 61.5585 162.945 62.3165 163.251 63.2266C163.526 64.0482 163.602 64.8176 163.477 65.5346C163.368 66.26 163.136 66.8866 162.778 67.4144L164.295 66.9054L165.027 69.0859L154.58 72.5919L153.848 70.4114L155.403 69.8896C154.787 69.6885 154.208 69.3271 153.668 68.8053C153.127 68.2836 152.721 67.6182 152.449 66.8092C152.148 65.9118 152.1 65.0138 152.305 64.1153C152.522 63.2125 152.967 62.4021 153.64 61.6839C154.33 60.9742 155.2 60.4433 156.249 60.0912ZM159.081 68.6552C159.802 68.4134 160.376 68.0517 160.805 67.5702C161.239 67.1013 161.514 66.58 161.631 66.0064C161.748 65.4327 161.713 64.8678 161.526 64.3116C161.34 63.7554 161.027 63.2838 160.587 62.8968C160.161 62.5055 159.631 62.2473 158.998 62.1221C158.382 62.0053 157.714 62.0678 156.994 62.3096C156.273 62.5514 155.69 62.9088 155.244 63.382C154.802 63.8678 154.517 64.3996 154.387 64.9775C154.274 65.5638 154.309 66.1287 154.492 66.6723C154.678 67.2285 154.991 67.7001 155.431 68.0871C155.87 68.4741 156.404 68.7239 157.032 68.8365C157.678 68.9574 158.361 68.897 159.081 68.6552Z" fill="#CFEF00"/>
<path d="M161.536 79.5751C162.668 79.5075 163.673 79.6745 164.551 80.0761C165.444 80.4902 166.148 81.0893 166.662 81.8733C167.177 82.6573 167.465 83.5751 167.528 84.6265C167.608 85.9575 167.354 87.0746 166.767 87.9779C166.194 88.8938 165.331 89.5397 164.178 89.9159L164.031 87.4603C164.565 87.228 164.972 86.8831 165.252 86.4256C165.531 85.9681 165.651 85.4066 165.612 84.7411C165.556 83.8094 165.179 83.084 164.48 82.5648C163.795 82.0581 162.86 81.8401 161.676 81.9109C160.491 81.9817 159.583 82.3099 158.95 82.8953C158.318 83.4941 158.029 84.2594 158.085 85.191C158.164 86.5087 158.795 87.3458 159.978 87.7025L160.125 90.1581C158.988 89.9055 158.061 89.3599 157.343 88.5213C156.638 87.6818 156.247 86.6099 156.169 85.3056C156.106 84.2541 156.283 83.3085 156.7 82.4688C157.131 81.6283 157.758 80.9496 158.582 80.4329C159.42 79.9286 160.405 79.6427 161.536 79.5751Z" fill="#CFEF00"/>
<path d="M164.615 101.507L158.593 100.533C158.185 100.467 157.874 100.511 157.66 100.665C157.457 100.835 157.318 101.15 157.244 101.611L157.02 102.993L155.145 102.69L155.432 100.913C155.596 99.8993 155.958 99.1611 156.519 98.6981C157.081 98.235 157.894 98.0898 158.96 98.2622L164.982 99.2362L165.19 97.9529L167.026 98.2498L166.818 99.5332L169.523 99.9707L169.156 102.241L166.451 101.804L166.023 104.449L164.187 104.152L164.615 101.507Z" fill="#CFEF00"/>
<path d="M159.841 129.228L152.317 124.548C151.423 123.992 150.605 123.805 149.863 123.987C149.115 124.181 148.48 124.697 147.959 125.535C147.431 126.384 147.248 127.181 147.413 127.927C147.57 128.684 148.095 129.341 148.99 129.898L156.513 134.577L155.309 136.513L147.82 131.855C146.857 131.256 146.172 130.54 145.765 129.705C145.358 128.871 145.208 128.001 145.316 127.094C145.425 126.188 145.743 125.311 146.271 124.461C146.799 123.612 147.446 122.939 148.211 122.441C148.969 121.955 149.808 121.715 150.73 121.723C151.651 121.731 152.593 122.035 153.556 122.633L161.045 127.292L159.841 129.228Z" fill="#CFEF00"/>
<path d="M135.326 137.825C135.955 137.229 136.627 136.805 137.342 136.551C138.056 136.316 138.741 136.255 139.398 136.368C140.064 136.49 140.636 136.784 141.114 137.25L139.399 138.872C139.05 138.561 138.619 138.426 138.109 138.468C137.598 138.53 137.12 138.771 136.674 139.192C136.209 139.632 135.933 140.058 135.846 140.471C135.759 140.902 135.848 141.259 136.114 141.539C136.398 141.84 136.754 141.925 137.182 141.796C137.6 141.675 138.202 141.409 138.987 140.997C139.743 140.593 140.383 140.291 140.908 140.088C141.432 139.886 141.986 139.812 142.569 139.866C143.143 139.929 143.677 140.222 144.172 140.745C144.575 141.171 144.815 141.678 144.893 142.265C144.98 142.861 144.888 143.481 144.615 144.124C144.333 144.777 143.887 145.392 143.276 145.969C142.366 146.83 141.415 147.289 140.423 147.347C139.43 147.423 138.539 147.082 137.749 146.324L139.405 144.758C139.773 145.089 140.189 145.237 140.652 145.203C141.115 145.168 141.57 144.94 142.015 144.519C142.451 144.107 142.707 143.708 142.784 143.324C142.861 142.939 142.771 142.611 142.514 142.34C142.313 142.127 142.066 142.021 141.773 142.022C141.481 142.024 141.182 142.086 140.877 142.21C140.581 142.343 140.155 142.553 139.6 142.839C138.872 143.234 138.247 143.523 137.723 143.706C137.198 143.909 136.654 143.983 136.09 143.93C135.525 143.876 134.995 143.597 134.5 143.093C134.069 142.638 133.81 142.112 133.723 141.515C133.636 140.919 133.729 140.299 134.001 139.656C134.264 139.022 134.706 138.411 135.326 137.825Z" fill="#CFEF00"/>
<path d="M106.739 158.762C106.672 159.229 106.596 159.642 106.51 160.003C106.412 160.367 106.305 160.679 106.188 160.937L117.343 157.542L117.588 158.345L106.433 161.741C106.677 161.903 106.942 162.108 107.226 162.356C107.498 162.608 107.79 162.902 108.102 163.24L107.432 163.443C106.345 162.757 105.293 162.324 104.277 162.146L104.173 161.801C104.921 161.1 105.553 160.155 106.069 158.966L106.739 158.762Z" fill="#CFEF00"/>
</svg>
