<svg width="23" height="22" viewBox="0 0 23 22" fill="none" xmlns="http://www.w3.org/2000/svg">
<path d="M3.25 8.68665V19.7491C3.25 19.9481 3.32902 20.1388 3.46967 20.2795C3.61032 20.4201 3.80109 20.4991 4 20.4991H8.5V14.1241C8.5 13.8258 8.61853 13.5396 8.8295 13.3287C9.04048 13.1177 9.32663 12.9991 9.625 12.9991H13.375C13.6734 12.9991 13.9595 13.1177 14.1705 13.3287C14.3815 13.5396 14.5 13.8258 14.5 14.1241V20.4991H19C19.1989 20.4991 19.3897 20.4201 19.5303 20.2795C19.671 20.1388 19.75 19.9481 19.75 19.7491V8.68665" stroke="#CFEF00" stroke-width="2" stroke-linecap="round" stroke-linejoin="round"/>
<path d="M22 10.7492L12.0105 1.18668C11.7761 0.939181 11.2281 0.936369 10.9895 1.18668L1 10.7492M18.25 7.13981V1.74918H16V4.98356" stroke="#CFEF00" stroke-width="2" stroke-linecap="round" stroke-linejoin="round"/>
</svg>
