<svg width="220" height="216" viewBox="0 0 220 216" fill="none" xmlns="http://www.w3.org/2000/svg">
<path d="M119.76 18.8977C119.709 18.161 119.383 17.5754 118.784 17.1406C118.184 16.7058 117.434 16.4666 116.533 16.423C115.876 16.3911 115.294 16.4692 114.791 16.6574C114.292 16.8457 113.895 17.1187 113.601 17.4763C113.311 17.8343 113.156 18.2492 113.132 18.7215C113.114 19.1166 113.191 19.4609 113.365 19.7543C113.546 20.0432 113.781 20.2888 114.072 20.4913C114.363 20.6889 114.67 20.8559 114.993 20.9923C115.317 21.1239 115.615 21.2325 115.887 21.3182L117.377 21.796C117.759 21.9161 118.183 22.0766 118.649 22.2779C119.119 22.4794 119.564 22.7449 119.985 23.0744C120.411 23.3992 120.754 23.8072 121.016 24.298C121.278 24.7889 121.393 25.3812 121.359 26.0751C121.32 26.875 121.074 27.5875 120.621 28.2128C120.174 28.8383 119.539 29.3219 118.717 29.6637C117.9 30.0057 116.92 30.149 115.778 30.0937C114.714 30.042 113.8 29.8263 113.038 29.4465C112.28 29.0669 111.693 28.5603 111.278 27.9268C110.868 27.2935 110.654 26.5706 110.635 25.7584L112.494 25.8484C112.514 26.4097 112.681 26.8814 112.992 27.2636C113.308 27.6412 113.715 27.9313 114.215 28.1343C114.719 28.3326 115.267 28.4461 115.857 28.4746C116.545 28.5079 117.167 28.427 117.725 28.2318C118.282 28.0319 118.731 27.7397 119.07 27.3552C119.409 26.9659 119.592 26.5015 119.619 25.9618C119.642 25.4703 119.523 25.0636 119.264 24.7419C119.003 24.4201 118.652 24.1521 118.211 23.9375C117.771 23.7229 117.293 23.5308 116.777 23.3608L114.973 22.7518C113.828 22.3631 112.932 21.8439 112.284 21.1943C111.637 20.5448 111.337 19.7212 111.387 18.7238C111.426 17.895 111.687 17.1832 112.167 16.5882C112.652 15.9887 113.286 15.5363 114.067 15.2313C114.853 14.9216 115.721 14.7898 116.67 14.8357C117.627 14.8822 118.471 15.0944 119.199 15.4727C119.929 15.846 120.496 16.3372 120.903 16.9462C121.314 17.5554 121.514 18.2341 121.501 18.982L119.76 18.8977Z" fill="black"/>
<path d="M142.992 24.9441L141.26 24.4459C141.301 23.9206 141.249 23.4334 141.102 22.9842C140.96 22.5365 140.744 22.133 140.455 21.7736C140.172 21.411 139.83 21.1018 139.431 20.8461C139.031 20.5905 138.593 20.3944 138.118 20.2577C137.252 20.0086 136.405 20.0008 135.576 20.2341C134.752 20.4689 134.009 20.9507 133.349 21.6797C132.693 22.4099 132.186 23.3914 131.828 24.6242C131.47 25.857 131.373 26.9564 131.536 27.9224C131.704 28.8897 132.075 29.6916 132.647 30.3281C133.223 30.966 133.944 31.4096 134.81 31.6587C135.285 31.7953 135.759 31.8616 136.234 31.8578C136.71 31.8539 137.163 31.7762 137.596 31.6243C138.034 31.4693 138.433 31.2402 138.793 30.9371C139.16 30.6307 139.466 30.2467 139.71 29.7849L141.443 30.2831C141.101 30.9733 140.674 31.5561 140.163 32.0317C139.652 32.5073 139.082 32.873 138.453 33.1288C137.825 33.3801 137.162 33.5182 136.463 33.5433C135.771 33.5697 135.063 33.4791 134.341 33.2715C133.121 32.9205 132.124 32.3119 131.346 31.4454C130.568 30.579 130.067 29.5206 129.84 28.2701C129.613 27.0197 129.717 25.6436 130.152 24.1421C130.588 22.6405 131.238 21.4211 132.099 20.484C132.961 19.5471 133.953 18.9185 135.075 18.5985C136.196 18.2785 137.367 18.294 138.587 18.6449C139.308 18.8525 139.955 19.1517 140.528 19.5424C141.105 19.9345 141.591 20.4057 141.986 20.9563C142.382 21.5021 142.668 22.112 142.847 22.7858C143.026 23.455 143.074 24.1744 142.992 24.9441Z" fill="black"/>
<path d="M146.974 37.9145L154.293 25.0098L158.672 27.472C159.684 28.0413 160.418 28.6808 160.872 29.3906C161.329 30.0961 161.545 30.8349 161.518 31.607C161.492 32.379 161.263 33.1452 160.832 33.9055C160.402 34.6659 159.862 35.2523 159.217 35.6649C158.571 36.0775 157.83 36.2703 156.994 36.2435C156.16 36.2124 155.241 35.9146 154.237 35.35L150.694 33.3575L151.494 31.9461L154.987 33.9101C155.679 34.2992 156.293 34.5114 156.829 34.547C157.37 34.585 157.84 34.4725 158.239 34.2095C158.646 33.9448 158.996 33.5541 159.288 33.0374C159.581 32.5206 159.741 32.0146 159.765 31.519C159.791 31.0234 159.649 30.5508 159.342 30.1011C159.038 29.6473 158.535 29.2236 157.835 28.8298L155.077 27.2785L148.544 38.7969L146.974 37.9145ZM156.363 35.5475L156.264 43.1377L154.442 42.113L154.59 34.5512L156.363 35.5475Z" fill="black"/>
<path d="M175.503 49.8657C174.436 51.0129 173.307 51.8125 172.115 52.2647C170.922 52.7168 169.752 52.8352 168.606 52.6199C167.459 52.4047 166.419 51.8677 165.488 51.0091C164.557 50.1506 163.939 49.1605 163.635 48.0389C163.33 46.9172 163.359 45.7469 163.719 44.528C164.08 43.309 164.793 42.126 165.86 40.9789C166.926 39.8317 168.055 39.0321 169.249 38.58C170.441 38.1278 171.61 38.0094 172.757 38.2247C173.903 38.44 174.943 38.9769 175.874 39.8354C176.806 40.694 177.424 41.6841 177.728 42.8057C178.032 43.9274 178.004 45.0977 177.643 46.3166C177.282 47.5356 176.569 48.7186 175.503 49.8657ZM174.223 48.6861C175.099 47.7443 175.679 46.8036 175.964 45.8641C176.254 44.9278 176.284 44.0459 176.057 43.2182C175.833 42.394 175.39 41.677 174.729 41.0675C174.068 40.458 173.314 40.0723 172.468 39.9103C171.625 39.7515 170.745 39.8504 169.826 40.2066C168.911 40.5661 168.016 41.2168 167.14 42.1585C166.265 43.1004 165.683 44.0393 165.393 44.9756C165.106 45.9152 165.076 46.7971 165.3 47.6214C165.528 48.449 165.972 49.1676 166.633 49.7771C167.295 50.3866 168.047 50.7707 168.889 50.9294C169.736 51.0914 170.617 50.9926 171.531 50.6332C172.45 50.2769 173.348 49.6278 174.223 48.6861Z" fill="black"/>
<path d="M175.472 61.6161L187.829 53.3546L188.834 54.8444L177.804 62.2186L181.661 67.9377L180.333 68.8252L175.472 61.6161Z" fill="black"/>
<path d="M184.763 77.6077L198.7 72.4062L199.332 74.0866L186.893 78.7294L189.321 85.18L187.824 85.7388L184.763 77.6077Z" fill="black"/>
<path d="M188.92 112.252L189.409 107.705L204.208 109.284L203.696 114.033C203.543 115.462 203.114 116.654 202.412 117.607C201.715 118.562 200.786 119.25 199.625 119.675C198.468 120.1 197.123 120.23 195.591 120.066C194.05 119.902 192.752 119.488 191.699 118.821C190.649 118.157 189.882 117.27 189.397 116.16C188.918 115.051 188.758 113.748 188.92 112.252ZM190.806 109.659L190.521 112.306C190.39 113.524 190.518 114.559 190.904 115.411C191.289 116.262 191.897 116.931 192.726 117.417C193.556 117.904 194.573 118.211 195.777 118.34C196.973 118.468 198.021 118.383 198.926 118.087C199.835 117.79 200.562 117.281 201.108 116.558C201.658 115.836 201.995 114.899 202.12 113.748L202.426 110.899L190.806 109.659Z" fill="black"/>
<path d="M189.6 139.322C188.119 138.801 186.935 138.085 186.045 137.174C185.156 136.262 184.584 135.24 184.328 134.106C184.072 132.973 184.156 131.81 184.579 130.619C185.002 129.427 185.67 128.47 186.583 127.748C187.497 127.025 188.588 126.587 189.855 126.434C191.122 126.282 192.496 126.465 193.975 126.986C195.456 127.506 196.641 128.221 197.53 129.133C198.419 130.044 198.991 131.067 199.247 132.201C199.503 133.334 199.419 134.497 198.997 135.689C198.574 136.881 197.906 137.838 196.992 138.56C196.078 139.282 194.987 139.72 193.721 139.873C192.454 140.026 191.08 139.843 189.6 139.322ZM190.181 137.685C191.396 138.112 192.494 138.27 193.473 138.16C194.451 138.053 195.276 137.732 195.949 137.196C196.621 136.665 197.107 135.976 197.406 135.129C197.707 134.284 197.765 133.442 197.578 132.604C197.391 131.77 196.951 131.004 196.258 130.305C195.565 129.611 194.61 129.051 193.395 128.623C192.18 128.196 191.083 128.035 190.106 128.141C189.125 128.252 188.299 128.573 187.628 129.105C186.955 129.641 186.469 130.332 186.169 131.177C185.868 132.024 185.812 132.863 185.999 133.697C186.185 134.534 186.625 135.301 187.319 135.995C188.012 136.693 188.966 137.257 190.181 137.685Z" fill="black"/>
<path d="M179.155 143.327L193.871 147.945L192.88 149.478L181.004 145.545L180.925 145.668L189.401 154.856L188.299 156.559L176.392 152.675L176.313 152.798L184.819 161.937L183.828 163.47L173.519 152.039L174.527 150.481L186.277 154.126L186.339 154.028L178.147 144.884L179.155 143.327Z" fill="black"/>
<path d="M170.9 176.259L160.584 165.577L161.841 164.374L175.787 167.163L175.892 167.063L167.791 158.675L169.09 157.431L179.407 168.113L178.15 169.318L164.163 166.528L164.058 166.628L172.178 175.035L170.9 176.259Z" fill="black"/>
<path d="M145.349 177.273L146.779 177.926L144.025 183.806L155.239 179.742L155.786 181.238L144.573 185.302L150.473 188.03L149.804 189.458L141.458 185.584L145.349 177.273Z" fill="black"/>
<path d="M104.465 194.864C104.466 195.601 104.752 196.207 105.321 196.682C105.889 197.156 106.621 197.445 107.516 197.549C108.17 197.626 108.756 197.587 109.27 197.433C109.782 197.279 110.195 197.034 110.514 196.697C110.827 196.359 111.01 195.955 111.065 195.486C111.111 195.093 111.057 194.744 110.903 194.44C110.743 194.139 110.525 193.878 110.249 193.656C109.971 193.44 109.677 193.253 109.364 193.095C109.049 192.942 108.76 192.813 108.494 192.71L107.04 192.132C106.666 191.986 106.255 191.798 105.804 191.566C105.348 191.333 104.922 191.038 104.525 190.681C104.122 190.329 103.807 189.898 103.579 189.39C103.35 188.883 103.277 188.285 103.358 187.595C103.451 186.799 103.745 186.104 104.239 185.511C104.728 184.917 105.394 184.477 106.237 184.192C107.076 183.906 108.063 183.829 109.199 183.962C110.258 184.084 111.154 184.361 111.889 184.792C112.62 185.221 113.17 185.766 113.54 186.426C113.908 187.086 114.073 187.821 114.036 188.633L112.188 188.418C112.205 187.857 112.071 187.375 111.787 186.972C111.497 186.575 111.109 186.257 110.625 186.022C110.135 185.79 109.597 185.64 109.009 185.572C108.326 185.492 107.7 185.531 107.13 185.688C106.56 185.85 106.093 186.11 105.729 186.471C105.364 186.837 105.15 187.288 105.086 187.825C105.029 188.313 105.12 188.727 105.359 189.066C105.597 189.404 105.928 189.696 106.353 189.939C106.778 190.183 107.242 190.407 107.745 190.611L109.504 191.34C110.619 191.806 111.479 192.384 112.08 193.075C112.682 193.767 112.924 194.609 112.808 195.601C112.712 196.426 112.403 197.118 111.884 197.679C111.359 198.244 110.696 198.653 109.896 198.904C109.09 199.161 108.215 199.234 107.272 199.124C106.319 199.013 105.493 198.744 104.792 198.319C104.09 197.897 103.557 197.368 103.192 196.733C102.823 196.097 102.669 195.407 102.733 194.662L104.465 194.864Z" fill="black"/>
<path d="M81.698 187.265L83.3916 187.879C83.3144 188.4 83.334 188.89 83.4501 189.347C83.5617 189.804 83.7496 190.222 84.0135 190.6C84.2713 190.98 84.5909 191.312 84.9725 191.594C85.3541 191.875 85.7771 192.1 86.2414 192.27C87.0883 192.576 87.9333 192.641 88.7766 192.464C89.6152 192.286 90.3888 191.855 91.0972 191.172C91.8011 190.488 92.3734 189.542 92.8142 188.337C93.255 187.13 93.4267 186.04 93.3293 185.066C93.2273 184.089 92.9128 183.264 92.3857 182.59C91.8539 181.916 91.1646 181.425 90.3179 181.117C89.8534 180.949 89.3841 180.851 88.9098 180.823C88.4354 180.794 87.9774 180.842 87.5357 180.964C87.0878 181.089 86.6738 181.29 86.2936 181.568C85.9073 181.85 85.5763 182.212 85.3006 182.657L83.6069 182.043C83.9946 181.377 84.4595 180.825 85.002 180.384C85.5443 179.944 86.138 179.618 86.7829 179.405C87.4263 179.196 88.0971 179.104 88.7954 179.125C89.4891 179.146 90.1889 179.284 90.8945 179.54C92.0873 179.972 93.0421 180.646 93.7588 181.563C94.4754 182.48 94.9045 183.57 95.0461 184.833C95.1878 186.096 94.9901 187.462 94.4532 188.931C93.9164 190.399 93.186 191.573 92.2623 192.449C91.3385 193.326 90.3062 193.885 89.1654 194.13C88.0245 194.374 86.8576 194.279 85.6648 193.847C84.9591 193.591 84.334 193.249 83.7894 192.821C83.2402 192.391 82.7873 191.887 82.4306 191.312C82.0724 190.74 81.8275 190.113 81.696 189.428C81.563 188.748 81.5636 188.027 81.698 187.265Z" fill="black"/>
<path d="M78.6053 174.056L70.4265 186.438L66.2248 183.687C65.2533 183.05 64.565 182.362 64.16 181.623C63.7522 180.889 63.5876 180.138 63.6661 179.369C63.7446 178.6 64.0248 177.852 64.5067 177.122C64.9886 176.393 65.5657 175.843 66.2379 175.476C66.9102 175.108 67.6625 174.965 68.4948 175.048C69.3244 175.135 70.221 175.494 71.1844 176.126L74.5847 178.352L73.6901 179.706L70.3385 177.511C69.6746 177.076 69.0764 176.824 68.5438 176.751C68.0071 176.678 67.5306 176.758 67.1142 176.994C66.691 177.23 66.3157 177.597 65.9882 178.092C65.6608 178.588 65.4677 179.082 65.4089 179.574C65.3502 180.068 65.4587 180.548 65.7344 181.018C66.0075 181.491 66.48 181.947 67.152 182.388L69.7992 184.122L77.0994 173.07L78.6053 174.056ZM69.0779 175.785L69.6918 168.219L71.4404 169.363L70.7781 176.898L69.0779 175.785Z" fill="black"/>
<path d="M50.9553 160.21C52.0971 159.137 53.2784 158.415 54.499 158.045C55.7198 157.674 56.8948 157.634 58.0241 157.927C59.1534 158.218 60.1536 158.824 61.0247 159.743C61.8958 160.663 62.445 161.692 62.6722 162.831C62.8993 163.971 62.7916 165.137 62.3489 166.329C61.9063 167.521 61.114 168.653 59.9722 169.726C58.8304 170.798 57.6491 171.52 56.4285 171.891C55.2077 172.261 54.0327 172.301 52.9034 172.008C51.774 171.717 50.7739 171.111 49.9028 170.192C49.0316 169.273 48.4825 168.243 48.2553 167.104C48.0282 165.963 48.1359 164.798 48.5786 163.606C49.0212 162.415 49.8134 161.282 50.9553 160.21ZM52.1522 161.472C51.2148 162.354 50.5716 163.252 50.2226 164.171C49.8703 165.085 49.7795 165.963 49.9502 166.804C50.1178 167.641 50.5107 168.387 51.1291 169.039C51.7475 169.692 52.4734 170.128 53.3067 170.347C54.1367 170.562 55.0221 170.523 55.9629 170.229C56.9004 169.932 57.8378 169.343 58.7752 168.463C59.7126 167.582 60.3576 166.685 60.7099 165.77C61.0588 164.852 61.1497 163.974 60.9822 163.136C60.8114 162.295 60.4168 161.549 59.7984 160.896C59.18 160.242 58.4558 159.809 57.6258 159.593C56.7925 159.375 55.907 159.414 54.9695 159.712C54.0287 160.005 53.0896 160.592 52.1522 161.472Z" fill="black"/>
<path d="M51.7845 148.488L38.8949 155.898L37.9937 154.344L49.4987 147.73L46.0395 141.764L47.424 140.969L51.7845 148.488Z" fill="black"/>
<path d="M43.6015 131.907L29.3431 136.157L28.8262 134.439L41.553 130.644L39.5687 124.045L41.1004 123.589L43.6015 131.907Z" fill="black"/>
<path d="M37.5524 98.8255L36.7548 103.33L22.0973 100.756L22.9301 96.0524C23.1809 94.6367 23.6889 93.4767 24.4541 92.5726C25.2145 91.6676 26.1887 91.0426 27.3764 90.6976C28.5593 90.3518 29.9094 90.312 31.4267 90.5784C32.9535 90.8464 34.2201 91.348 35.2264 92.0831C36.2278 92.8174 36.9328 93.7544 37.3409 94.8939C37.7444 96.0327 37.8149 97.3431 37.5524 98.8255ZM35.4932 101.286L35.9577 98.663C36.1714 97.4563 36.1147 96.4152 35.7876 95.5396C35.4605 94.6642 34.8997 93.9558 34.105 93.4147C33.3104 92.8735 32.3166 92.4981 31.1238 92.2887C29.9405 92.081 28.8877 92.0945 27.9656 92.3294C27.0386 92.5634 26.2783 93.0226 25.6848 93.7071C25.0865 94.3908 24.6864 95.3028 24.4845 96.443L23.9848 99.2649L35.4932 101.286Z" fill="black"/>
<path d="M38.7125 71.7712C40.154 72.3903 41.2873 73.1845 42.1127 74.1536C42.938 75.1229 43.4397 76.1816 43.6177 77.3298C43.7956 78.478 43.6332 79.6325 43.1304 80.793C42.6277 81.9536 41.8959 82.8634 40.9349 83.5224C39.974 84.1815 38.8564 84.5447 37.5819 84.6121C36.3075 84.6793 34.9496 84.4035 33.5082 83.7844C32.0669 83.1653 30.9335 82.3712 30.108 81.4019C29.2827 80.4328 28.781 79.3741 28.603 78.2258C28.4251 77.0776 28.5875 75.9232 29.0903 74.7626C29.593 73.6021 30.3249 72.6923 31.2858 72.0331C32.2468 71.3741 33.3644 71.0109 34.6388 70.9436C35.9133 70.8762 37.2711 71.1521 38.7125 71.7712ZM38.0217 73.3659C36.8383 72.8576 35.7542 72.6258 34.7693 72.6703C33.7863 72.7105 32.9408 72.9752 32.2329 73.4644C31.5269 73.9493 30.9954 74.6036 30.6384 75.4276C30.2815 76.2515 30.1673 77.0876 30.2957 77.9362C30.426 78.7802 30.8129 79.5742 31.4562 80.3182C32.1013 81.0576 33.0157 81.6815 34.199 82.1897C35.3824 82.698 36.4656 82.9321 37.4486 82.8919C38.4335 82.8473 39.279 82.5826 39.985 82.0978C40.6929 81.6086 41.2254 80.952 41.5823 80.1281C41.9392 79.3041 42.0525 78.4701 41.9223 77.6261C41.7938 76.7776 41.4069 75.9836 40.7617 75.2441C40.1184 74.5002 39.2051 73.8741 38.0217 73.3659Z" fill="black"/>
<path d="M49.4069 68.4795L35.0379 62.8801L36.1316 61.4175L47.7125 66.1409L47.7992 66.0249L39.968 56.2863L41.1832 54.6611L52.7987 59.3382L52.8855 59.2221L45.0196 49.53L46.1131 48.0673L55.6214 60.1676L54.5105 61.6535L43.0353 57.2249L42.9659 57.3178L50.5178 66.9936L49.4069 68.4795Z" fill="black"/>
<path d="M59.8807 36.1788L69.4478 47.5314L68.1116 48.6478L54.387 44.925L54.2756 45.0182L61.7874 53.9317L60.4067 55.0853L50.8395 43.7326L52.1757 42.6163L65.9413 46.3425L66.0526 46.2495L58.5222 37.3137L59.8807 36.1788Z" fill="black"/>
<path d="M90.3255 32.3449L88.9817 31.5316L92.4025 26.0095L80.791 28.7497L80.4224 27.2006L92.0339 24.4605L86.4912 21.0684L87.3222 19.727L95.1599 24.5408L90.3255 32.3449Z" fill="black"/>
<path d="M114.939 141.061C115.525 141.646 116.475 141.646 117.061 141.061L126.607 131.515C127.192 130.929 127.192 129.979 126.607 129.393C126.021 128.808 125.071 128.808 124.485 129.393L116 137.879L107.515 129.393C106.929 128.808 105.979 128.808 105.393 129.393C104.808 129.979 104.808 130.929 105.393 131.515L114.939 141.061ZM114.5 68L114.5 140L117.5 140L117.5 68L114.5 68Z" fill="black"/>
</svg>
